solid Крепление драйвера мотора
facet normal -3.576278724342454e-08 -1.7881393402670642e-07 0.9999999999999833
  outer loop
    vertex 4.999999999999999 3.2500000596046443 6.000000476837158
    vertex 6.124847828914426e-08 5.500000059604645 6.000000476837158
    vertex 2.945049004665634e-08 -0.49999994039535534 6.0
  endloop
endfacet
facet normal -1.515824483920116e-15 -2.8610229057756074e-07 0.9999999999999591
  outer loop
    vertex 14.999999999999998 -0.5000001192092896 6.0
    vertex 4.999999999999999 3.2500000596046443 6.000000476837158
    vertex 2.945049004665634e-08 -0.49999994039535534 6.0
  endloop
endfacet
facet normal -3.0316490540007038e-15 -2.861022996725077e-07 0.9999999999999591
  outer loop
    vertex 14.999999999999998 -0.5000001192092896 6.0
    vertex 12.5 3.2499998807907104 6.000000476837158
    vertex 4.999999999999999 3.2500000596046443 6.000000476837158
  endloop
endfacet
facet normal 1.9073486341669386e-07 0.0 0.9999999999999818
  outer loop
    vertex 14.999999999999998 -0.5000001192092896 6.0
    vertex 12.5 14.500000059604643 6.000000476837158
    vertex 12.5 3.2499998807907104 6.000000476837158
  endloop
endfacet
facet normal 5.722045947974664e-07 1.4305114756249817e-07 0.9999999999998261
  outer loop
    vertex 14.999999999999998 -0.5000001192092896 6.0
    vertex 12.5 22.000000059604645 6.0
    vertex 12.5 14.500000059604643 6.000000476837158
  endloop
endfacet
facet normal 0.0 0.0 1.0
  outer loop
    vertex 14.999999999999998 -0.5000001192092896 6.0
    vertex 12.5 33.25000005960464 6.0
    vertex 12.5 22.000000059604645 6.0
  endloop
endfacet
facet normal 0.0 1.7881393445315082e-07 0.999999999999984
  outer loop
    vertex 4.999999999999999 31.000000059604645 6.000000476837158
    vertex 2.281879432075584e-07 37.00000005960464 6.0
    vertex 1.9638994785964312e-07 31.000000059604645 6.000000476837158
  endloop
endfacet
facet normal -9.536743606068789e-08 2.1518662313596306e-22 0.9999999999999956
  outer loop
    vertex 4.999999999999999 33.25000005960464 6.000000476837158
    vertex 2.281879432075584e-07 37.00000005960464 6.0
    vertex 4.999999999999999 31.000000059604645 6.000000476837158
  endloop
endfacet
facet normal 0.0 2.861022951250344e-07 0.9999999999999591
  outer loop
    vertex 14.999999999999998 37.00000005960464 6.0
    vertex 2.281879432075584e-07 37.00000005960464 6.0
    vertex 4.999999999999999 33.25000005960464 6.000000476837158
  endloop
endfacet
facet normal 6.357828780556534e-08 -9.536743170834802e-08 0.9999999999999936
  outer loop
    vertex 14.999999999999998 37.00000005960464 6.0
    vertex 4.999999999999999 33.25000005960464 6.000000476837158
    vertex 12.5 33.25000005960464 6.0
  endloop
endfacet
facet normal 0.0 0.0 1.0
  outer loop
    vertex 14.999999999999998 37.00000005960464 6.0
    vertex 12.5 33.25000005960464 6.0
    vertex 14.999999999999998 -0.5000001192092896 6.0
  endloop
endfacet
facet normal 0.0 1.4305114756252144e-07 0.9999999999999898
  outer loop
    vertex 12.5 14.500000059604643 6.000000476837158
    vertex 11.0 22.000000059604645 6.0
    vertex 11.0 14.500000059604643 6.000000476837158
  endloop
endfacet
facet normal -3.586443391579421e-23 1.4305114756252144e-07 0.9999999999999898
  outer loop
    vertex 12.5 22.000000059604645 6.0
    vertex 11.0 22.000000059604645 6.0
    vertex 12.5 14.500000059604643 6.000000476837158
  endloop
endfacet
facet normal 0.0 0.0 1.0
  outer loop
    vertex 4.999999999999999 5.500000059604645 6.000000476837158
    vertex 6.124847828914426e-08 5.500000059604645 6.000000476837158
    vertex 4.999999999999999 3.2500000596046443 6.000000476837158
  endloop
endfacet
facet normal 1.0 0.0 0.0
  outer loop
    vertex 14.999999999999998 37.00000005960464 6.0
    vertex 14.999999999999998 -0.5000001192092896 6.0
    vertex 14.999999999999998 -0.5000001192092896 -2.785436770125216e-09
  endloop
endfacet
facet normal 1.0 0.0 0.0
  outer loop
    vertex 14.999999999999998 37.00000005960464 6.0
    vertex 14.999999999999998 -0.5000001192092896 -2.785436770125216e-09
    vertex 14.999999999999998 37.00000005960464 1.8800255929818374e-07
  endloop
endfacet
facet normal 0.0 -1.0 0.0
  outer loop
    vertex 12.5 33.25000005960464 6.0
    vertex 4.999999999999999 33.25000005960464 6.376472470037696e-07
    vertex 12.5 33.25000005960464 1.7488905257323495e-07
  endloop
endfacet
facet normal 0.0 -1.0 0.0
  outer loop
    vertex 4.999999999999999 33.25000005960464 6.000000476837158
    vertex 4.999999999999999 33.25000005960464 6.376472470037696e-07
    vertex 12.5 33.25000005960464 6.0
  endloop
endfacet
facet normal -1.0 0.0 0.0
  outer loop
    vertex 11.0 22.000000059604645 6.0
    vertex 11.0 14.500000059604643 5.267909841677465e-07
    vertex 11.0 14.500000059604643 6.000000476837158
  endloop
endfacet
facet normal -1.0 0.0 0.0
  outer loop
    vertex 11.0 22.000000059604645 1.1805330757397313e-07
    vertex 11.0 14.500000059604643 5.267909841677465e-07
    vertex 11.0 22.000000059604645 6.0
  endloop
endfacet
facet normal -1.0 0.0 0.0
  outer loop
    vertex 12.5 14.500000059604643 6.000000476837158
    vertex 12.5 3.2499998807907104 4.6438424305961234e-07
    vertex 12.5 3.2499998807907104 6.000000476837158
  endloop
endfacet
facet normal -1.0 0.0 0.0
  outer loop
    vertex 12.5 14.500000059604643 5.240055429567292e-07
    vertex 12.5 3.2499998807907104 4.6438424305961234e-07
    vertex 12.5 14.500000059604643 6.000000476837158
  endloop
endfacet
facet normal -1.0 1.1924244594783227e-08 5.570873170176088e-09
  outer loop
    vertex 6.124847828914426e-08 5.500000059604645 6.000000476837158
    vertex -3.9747489744001996e-09 -0.49999994039535534 -6.828487923792959e-16
    vertex 2.945049004665634e-08 -0.49999994039535534 6.0
  endloop
endfacet
facet normal -1.0 1.1924243771523758e-08 5.570873536069156e-09
  outer loop
    vertex 2.782323704764167e-08 5.500000059604645 4.723337951872963e-07
    vertex -3.9747489744001996e-09 -0.49999994039535534 -6.828487923792959e-16
    vertex 6.124847828914426e-08 5.500000059604645 6.000000476837158
  endloop
endfacet
facet normal 0.0 1.0 0.0
  outer loop
    vertex 14.999999999999998 37.00000005960464 6.0
    vertex 14.999999999999998 37.00000005960464 1.8800255929818374e-07
    vertex 1.9476270551876948e-07 37.00000005960464 1.9078800050920108e-07
  endloop
endfacet
facet normal 0.0 1.0 0.0
  outer loop
    vertex 14.999999999999998 37.00000005960464 6.0
    vertex 1.9476270551876948e-07 37.00000005960464 1.9078800050920108e-07
    vertex 2.281879432075584e-07 37.00000005960464 6.0
  endloop
endfacet
facet normal 0.0 1.0 0.0
  outer loop
    vertex 12.5 22.000000059604645 6.0
    vertex 12.5 22.000000059604645 1.1526781662496431e-07
    vertex 11.0 22.000000059604645 1.1805330757397313e-07
  endloop
endfacet
facet normal 0.0 1.0 0.0
  outer loop
    vertex 12.5 22.000000059604645 6.0
    vertex 11.0 22.000000059604645 1.1805330757397313e-07
    vertex 11.0 22.000000059604645 6.0
  endloop
endfacet
facet normal -5.298190645143261e-09 -1.0 2.6566247306287603e-24
  outer loop
    vertex 14.999999999999998 -0.5000001192092896 6.0
    vertex -3.9747489744001996e-09 -0.49999994039535534 -6.828487923792959e-16
    vertex 14.999999999999998 -0.5000001192092896 -2.785436770125216e-09
  endloop
endfacet
facet normal -5.298190656949478e-09 -1.0 2.9515545900874345e-17
  outer loop
    vertex 2.945049004665634e-08 -0.49999994039535534 6.0
    vertex -3.9747489744001996e-09 -0.49999994039535534 -6.828487923792959e-16
    vertex 14.999999999999998 -0.5000001192092896 6.0
  endloop
endfacet
facet normal 0.0 -1.0 0.0
  outer loop
    vertex 12.5 14.500000059604643 6.000000476837158
    vertex 11.0 14.500000059604643 5.267909841677465e-07
    vertex 12.5 14.500000059604643 5.240055429567292e-07
  endloop
endfacet
facet normal 0.0 -1.0 0.0
  outer loop
    vertex 11.0 14.500000059604643 6.000000476837158
    vertex 11.0 14.500000059604643 5.267909841677465e-07
    vertex 12.5 14.500000059604643 6.000000476837158
  endloop
endfacet
facet normal 0.0 -1.0 0.0
  outer loop
    vertex 1.9638994785964312e-07 31.000000059604645 6.000000476837158
    vertex 1.629647101708542e-07 31.000000059604645 3.9118211248023727e-07
    vertex 4.999999999999999 31.000000059604645 6.296978085629235e-07
  endloop
endfacet
facet normal 0.0 -1.0 0.0
  outer loop
    vertex 1.9638994785964312e-07 31.000000059604645 6.000000476837158
    vertex 4.999999999999999 31.000000059604645 6.296978085629235e-07
    vertex 4.999999999999999 31.000000059604645 6.000000476837158
  endloop
endfacet
facet normal -1.0 1.1924249251617934e-08 5.570872868602592e-09
  outer loop
    vertex 2.281879432075584e-07 37.00000005960464 6.0
    vertex 1.629647101708542e-07 31.000000059604645 3.9118211248023727e-07
    vertex 1.9638994785964312e-07 31.000000059604645 6.000000476837158
  endloop
endfacet
facet normal -1.0 1.1924248674107046e-08 5.5708731252741115e-09
  outer loop
    vertex 1.9476270551876948e-07 37.00000005960464 1.9078800050920108e-07
    vertex 1.629647101708542e-07 31.000000059604645 3.9118211248023727e-07
    vertex 2.281879432075584e-07 37.00000005960464 6.0
  endloop
endfacet
facet normal -1.1368683826874243e-14 7.9494952842651e-09 -1.0
  outer loop
    vertex 4.999999999999999 3.2500000596046443 4.6438424305961234e-07
    vertex 2.782323704764167e-08 5.500000059604645 4.723337951872963e-07
    vertex 4.999999999999999 5.500000059604645 4.7233373834387743e-07
  endloop
endfacet
facet normal -1.856960807344927e-09 -1.2262130297813108e-07 -0.9999999999999925
  outer loop
    vertex 12.5 14.500000059604643 5.240055429567292e-07
    vertex 11.0 14.500000059604643 5.267909841677465e-07
    vertex 11.0 22.000000059604645 1.1805330757397313e-07
  endloop
endfacet
facet normal -1.8569939660058496e-09 -1.2262131789952854e-07 -0.9999999999999925
  outer loop
    vertex 12.5 14.500000059604643 5.240055429567292e-07
    vertex 11.0 22.000000059604645 1.1805330757397313e-07
    vertex 12.5 22.000000059604645 1.1526781662496431e-07
  endloop
endfacet
facet normal 4.7703140771322746e-08 -7.514779255796243e-08 -0.999999999999996
  outer loop
    vertex 4.999999999999999 31.000000059604645 6.296978085629235e-07
    vertex 1.629647101708542e-07 31.000000059604645 3.9118211248023727e-07
    vertex 1.9476270551876948e-07 37.00000005960464 1.9078800050920108e-07
  endloop
endfacet
facet normal 9.202166569700634e-08 7.949438440846099e-09 -0.9999999999999958
  outer loop
    vertex 4.999999999999999 31.000000059604645 6.296978085629235e-07
    vertex 1.9476270551876948e-07 37.00000005960464 1.9078800050920108e-07
    vertex 4.999999999999999 33.25000005960464 6.376472470037696e-07
  endloop
endfacet
facet normal -1.8569608314559272e-10 -2.6867263612446854e-07 -0.999999999999964
  outer loop
    vertex 14.999999999999998 37.00000005960464 1.8800255929818374e-07
    vertex 4.999999999999999 33.25000005960464 6.376472470037696e-07
    vertex 1.9476270551876948e-07 37.00000005960464 1.9078800050920108e-07
  endloop
endfacet
facet normal -6.170109259073755e-08 1.0041974292107568e-07 -0.9999999999999931
  outer loop
    vertex 14.999999999999998 37.00000005960464 1.8800255929818374e-07
    vertex 12.5 33.25000005960464 1.7488905257323495e-07
    vertex 4.999999999999999 33.25000005960464 6.376472470037696e-07
  endloop
endfacet
facet normal -2.386117116362925e-09 1.1447279709513652e-08 -1.0
  outer loop
    vertex 14.999999999999998 -0.5000001192092896 -2.785436770125216e-09
    vertex 12.5 33.25000005960464 1.7488905257323495e-07
    vertex 14.999999999999998 37.00000005960464 1.8800255929818374e-07
  endloop
endfacet
facet normal -1.85694259913263e-10 2.7918762902564856e-07 -0.9999999999999611
  outer loop
    vertex 14.999999999999998 -0.5000001192092896 -2.785436770125216e-09
    vertex -3.9747489744001996e-09 -0.49999994039535534 -6.828487923792959e-16
    vertex 4.999999999999999 3.2500000596046443 4.6438424305961234e-07
  endloop
endfacet
facet normal 3.383512437231243e-08 1.7712517304784319e-07 -0.9999999999999838
  outer loop
    vertex 4.999999999999999 3.2500000596046443 4.6438424305961234e-07
    vertex -3.9747489744001996e-09 -0.49999994039535534 -6.828487923792959e-16
    vertex 2.782323704764167e-08 5.500000059604645 4.723337951872963e-07
  endloop
endfacet
facet normal 2.9701848721173997e-15 2.803018123531088e-07 -0.9999999999999607
  outer loop
    vertex 14.999999999999998 -0.5000001192092896 -2.785436770125216e-09
    vertex 4.999999999999999 3.2500000596046443 4.6438424305961234e-07
    vertex 12.5 3.2499998807907104 4.6438424305961234e-07
  endloop
endfacet
facet normal -1.7891836540529745e-07 1.1924259789892152e-08 -0.999999999999984
  outer loop
    vertex 14.999999999999998 -0.5000001192092896 -2.785436770125216e-09
    vertex 12.5 3.2499998807907104 4.6438424305961234e-07
    vertex 12.5 14.500000059604643 5.240055429567292e-07
  endloop
endfacet
facet normal -5.377065768540993e-07 -1.226213178995109e-07 -0.9999999999998479
  outer loop
    vertex 14.999999999999998 -0.5000001192092896 -2.785436770125216e-09
    vertex 12.5 14.500000059604643 5.240055429567292e-07
    vertex 12.5 22.000000059604645 1.1526781662496431e-07
  endloop
endfacet
facet normal 4.75687779642202e-10 1.1924247189654105e-08 -1.0
  outer loop
    vertex 14.999999999999998 -0.5000001192092896 -2.785436770125216e-09
    vertex 12.5 22.000000059604645 1.1526781662496431e-07
    vertex 12.5 33.25000005960464 1.7488905257323495e-07
  endloop
endfacet
facet normal 1.0596381285261137e-08 0.9999999999999998 1.3283123617378635e-24
  outer loop
    vertex 4.999999999999999 3.2500000596046443 6.000000476837158
    vertex 12.5 3.2499998807907104 4.6438424305961234e-07
    vertex 4.999999999999999 3.2500000596046443 4.6438424305961234e-07
  endloop
endfacet
facet normal 1.0596381285261137e-08 0.9999999999999998 1.3283123617378635e-24
  outer loop
    vertex 12.5 3.2499998807907104 6.000000476837158
    vertex 12.5 3.2499998807907104 4.6438424305961234e-07
    vertex 4.999999999999999 3.2500000596046443 6.000000476837158
  endloop
endfacet
facet normal 1.0 0.0 0.0
  outer loop
    vertex 4.999999999999999 33.25000005960464 6.000000476837158
    vertex 4.999999999999999 31.000000059604645 6.000000476837158
    vertex 4.999999999999999 31.000000059604645 6.296978085629235e-07
  endloop
endfacet
facet normal 1.0 0.0 0.0
  outer loop
    vertex 4.999999999999999 33.25000005960464 6.000000476837158
    vertex 4.999999999999999 31.000000059604645 6.296978085629235e-07
    vertex 4.999999999999999 33.25000005960464 6.376472470037696e-07
  endloop
endfacet
facet normal 0.0 1.0 0.0
  outer loop
    vertex 4.999999999999999 5.500000059604645 6.000000476837158
    vertex 4.999999999999999 5.500000059604645 4.7233373834387743e-07
    vertex 2.782323704764167e-08 5.500000059604645 4.723337951872963e-07
  endloop
endfacet
facet normal 0.0 1.0 0.0
  outer loop
    vertex 4.999999999999999 5.500000059604645 6.000000476837158
    vertex 2.782323704764167e-08 5.500000059604645 4.723337951872963e-07
    vertex 6.124847828914426e-08 5.500000059604645 6.000000476837158
  endloop
endfacet
facet normal 1.0 0.0 0.0
  outer loop
    vertex 4.999999999999999 5.500000059604645 6.000000476837158
    vertex 4.999999999999999 3.2500000596046443 6.000000476837158
    vertex 4.999999999999999 3.2500000596046443 4.6438424305961234e-07
  endloop
endfacet
facet normal 1.0 0.0 0.0
  outer loop
    vertex 4.999999999999999 5.500000059604645 6.000000476837158
    vertex 4.999999999999999 3.2500000596046443 4.6438424305961234e-07
    vertex 4.999999999999999 5.500000059604645 4.7233373834387743e-07
  endloop
endfacet
facet normal -1.0 0.0 0.0
  outer loop
    vertex 12.5 33.25000005960464 6.0
    vertex 12.5 22.000000059604645 1.1526781662496431e-07
    vertex 12.5 22.000000059604645 6.0
  endloop
endfacet
facet normal -1.0 0.0 0.0
  outer loop
    vertex 12.5 33.25000005960464 1.7488905257323495e-07
    vertex 12.5 22.000000059604645 1.1526781662496431e-07
    vertex 12.5 33.25000005960464 6.0
  endloop
endfacet
endsolid Крепление драйвера мотора
